<svg width="32" height="32" viewBox="0 0 32 32" fill="none" xmlns="http://www.w3.org/2000/svg">
<rect width="32" height="32" rx="4" fill="white"/>
<path fill-rule="evenodd" clip-rule="evenodd" d="M10 11.3846C10 10.6199 10.6199 10 11.3846 10H20.6154C21.3801 10 22 10.6199 22 11.3846V20.6154C22 21.3801 21.3801 22 20.6154 22H11.3846C10.6199 22 10 21.3801 10 20.6154V11.3846ZM11.3846 10.9231C11.1297 10.9231 10.9231 11.1297 10.9231 11.3846V20.6154C10.9231 20.8703 11.1297 21.0769 11.3846 21.0769H20.6154C20.8703 21.0769 21.0769 20.8703 21.0769 20.6154V11.3846C21.0769 11.1297 20.8703 10.9231 20.6154 10.9231H11.3846Z" fill="#5D5B66"/>
<path d="M12 9H14V12H12V9Z" fill="#5D5B66"/>
<path d="M10 11C10 10.4477 10.4477 10 11 10H21C21.5523 10 22 10.4477 22 11V13H10V11Z" fill="#5D5B66"/>
<path d="M12 15H14V16H12V15Z" fill="#5D5B66"/>
<path d="M12 18H14V19H12V18Z" fill="#5D5B66"/>
<path d="M15 15H17V16H15V15Z" fill="#5D5B66"/>
<path d="M15 18H17V19H15V18Z" fill="#5D5B66"/>
<path d="M18 15H20V16H18V15Z" fill="#5D5B66"/>
<path d="M18 18H20V19H18V18Z" fill="#5D5B66"/>
<path d="M18 9H20V12H18V9Z" fill="#5D5B66"/>
</svg>
